<svg width="15" height="13" viewBox="0 0 15 13" fill="none" xmlns="http://www.w3.org/2000/svg">
<path d="M8.37159 2.2942C8.08546 2.26325 7.79472 2.24551 7.50001 2.2411C6.21219 2.24681 4.87722 2.56006 3.61359 3.1603C2.67536 3.62433 1.76143 4.27942 0.967713 5.08748C0.5779 5.49998 0.0803876 6.09725 0 6.73451C0.00950001 7.28653 0.601913 7.96788 0.967713 8.38156C1.712 9.15788 2.60214 9.79422 3.61359 10.3087C3.64797 10.3254 3.68247 10.3419 3.71704 10.3582L2.77864 11.9969L4.0537 12.7505L10.9464 0.750101L9.71908 0L8.37159 2.2942ZM11.282 3.11269L10.3455 4.7359C10.7763 5.29568 11.0321 5.98598 11.0321 6.73451C11.0321 8.60022 9.45058 10.1128 7.49908 10.1128C7.41472 10.1128 7.33296 10.1037 7.25006 10.0982L6.63024 11.1712C6.91609 11.2018 7.20512 11.2241 7.49999 11.2279C8.78903 11.2221 10.1233 10.9053 11.3855 10.3087C12.3237 9.84471 13.2386 9.18962 14.0323 8.38156C14.4221 7.96907 14.9196 7.37178 15 6.73451C14.9905 6.18249 14.3981 5.50114 14.0323 5.08747C13.288 4.31114 12.3969 3.6748 11.3855 3.16028C11.3514 3.14373 11.3164 3.12884 11.282 3.11269ZM7.49909 3.35623C7.58467 3.35623 7.66957 3.35965 7.75361 3.36538L7.02759 4.62239C6.00867 4.82897 5.24414 5.69589 5.24414 6.73361C5.24414 6.99428 5.29215 7.24384 5.38055 7.47517C5.38065 7.47543 5.38045 7.47583 5.38055 7.47609L4.6527 8.73677C4.22082 8.17648 3.96605 7.48391 3.96605 6.73449C3.96607 4.8688 5.5476 3.35621 7.49909 3.35623ZM9.61121 6.00667L7.97517 8.84114C8.98862 8.63068 9.74763 7.76771 9.74763 6.73361C9.74763 6.47768 9.69656 6.23437 9.61121 6.00667Z" fill="#4C4C4C"/>
</svg>
