<svg width="15" height="9" viewBox="0 0 15 9" fill="none" xmlns="http://www.w3.org/2000/svg">
<path d="M9.74804 4.49905C9.74804 5.69242 8.73974 6.65983 7.49593 6.65983C6.25213 6.65983 5.24383 5.69242 5.24383 4.49905C5.24383 3.30568 6.25213 2.33828 7.49593 2.33828C8.73974 2.33827 9.74804 3.30569 9.74804 4.49905ZM7.5 0C6.21219 0.00572077 4.87733 0.319687 3.6137 0.920794C2.67548 1.38549 1.76112 2.04111 0.967425 2.85035C0.5776 3.26343 0.0803875 3.86157 0 4.49976C0.0095 5.05257 0.601625 5.7349 0.967425 6.14918C1.71171 6.92663 2.60225 7.56395 3.6137 8.07921C4.79209 8.65192 6.0964 8.98166 7.5 9C8.78904 8.99419 10.1236 8.67661 11.3858 8.07921C12.3241 7.61451 13.2389 6.95841 14.0326 6.14918C14.4224 5.73609 14.9196 5.13794 15 4.49976C14.9905 3.94694 14.3984 3.26458 14.0326 2.85032C13.2883 2.07287 12.3973 1.43604 11.3858 0.920769C10.2081 0.348491 8.90053 0.0210179 7.5 0ZM7.49905 1.11722C9.45054 1.11722 11.0325 2.63183 11.0325 4.50024C11.0325 6.36865 9.45054 7.88326 7.49905 7.88326C5.54756 7.88326 3.96561 6.36863 3.96561 4.50024C3.96561 2.63183 5.54756 1.11722 7.49905 1.11722Z" fill="#323232"/>
</svg>
